<svg xmlns="http://www.w3.org/2000/svg" width="21.381" height="21.381" viewBox="0 0 21.381 21.381">
  <path id="Path_37265" data-name="Path 37265" d="M10.691,1.9a32.78,32.78,0,0,1,4.276.119,5.509,5.509,0,0,1,2.019.356A4.172,4.172,0,0,1,19.006,4.4a5.509,5.509,0,0,1,.356,2.019c0,1.069.119,1.425.119,4.276a32.778,32.778,0,0,1-.119,4.276,5.51,5.51,0,0,1-.356,2.019,4.172,4.172,0,0,1-2.019,2.019,5.509,5.509,0,0,1-2.019.356c-1.069,0-1.425.119-4.276.119a32.778,32.778,0,0,1-4.276-.119A5.51,5.51,0,0,1,4.4,19.006a4.172,4.172,0,0,1-2.019-2.019,5.509,5.509,0,0,1-.356-2.019c0-1.069-.119-1.425-.119-4.276a32.78,32.78,0,0,1,.119-4.276A5.509,5.509,0,0,1,2.376,4.4a4.266,4.266,0,0,1,.831-1.188A2.008,2.008,0,0,1,4.4,2.376a5.509,5.509,0,0,1,2.019-.356A32.78,32.78,0,0,1,10.691,1.9m0-1.9A35.1,35.1,0,0,0,6.3.119,7.333,7.333,0,0,0,3.682.594a4.65,4.65,0,0,0-1.9,1.188,4.65,4.65,0,0,0-1.188,1.9A5.412,5.412,0,0,0,.119,6.3,35.1,35.1,0,0,0,0,10.691a35.1,35.1,0,0,0,.119,4.4A7.333,7.333,0,0,0,.594,17.7a4.65,4.65,0,0,0,1.188,1.9,4.65,4.65,0,0,0,1.9,1.188,7.333,7.333,0,0,0,2.613.475,35.1,35.1,0,0,0,4.4.119,35.1,35.1,0,0,0,4.4-.119,7.333,7.333,0,0,0,2.613-.475A4.984,4.984,0,0,0,20.787,17.7a7.333,7.333,0,0,0,.475-2.613c0-1.188.119-1.544.119-4.4a35.1,35.1,0,0,0-.119-4.4,7.333,7.333,0,0,0-.475-2.613,4.65,4.65,0,0,0-1.188-1.9A4.65,4.65,0,0,0,17.7.594,7.333,7.333,0,0,0,15.086.119,35.1,35.1,0,0,0,10.691,0m0,5.227a5.376,5.376,0,0,0-5.464,5.464,5.464,5.464,0,1,0,5.464-5.464m0,9.028a3.5,3.5,0,0,1-3.564-3.564,3.5,3.5,0,0,1,3.564-3.564,3.5,3.5,0,0,1,3.564,3.564,3.5,3.5,0,0,1-3.564,3.564m5.7-10.572A1.307,1.307,0,1,0,17.7,4.989a1.318,1.318,0,0,0-1.307-1.307" fill-rule="evenodd"/>
</svg>
