<svg xmlns="http://www.w3.org/2000/svg" width="126.946" height="119.273" viewBox="0 0 126.946 119.273">
  <g id="test" transform="translate(-20.596 -25.1)">
    <path id="Path_37274" data-name="Path 37274" d="M106.08,40.359c0,2.8-12.3,15.818-12.3,29.159,0,2.157.4,3.755.4,4.793,0,1.438-36.509,11.584-36.509,40.663,0,8.228,1.837,9.267,1.837,11.5s-9.986,2.157-15.978,2.157c-13.341,0-17.416-9.427-20.052-9.427-4.793,0-6.551,25.165,19.093,25.165,19.013,0,23.088-9.027,24.366-9.027,1.2,0,3.994,7.829,19.093,7.829s24.765-.16,29.958-.16.959-7.669-4.634-7.669c-7.829,0-9.347.639-9.347-3.2,0-5.672,4.074-9.027,4.074-17.735,0-3.675,4.793-2.636,4.793.16,0,9.666,13.5,27.961,17.575,27.961,3.915,0,9.027.559,9.027-3.915,0-7.35-13.341,7.989-13.341-31.875,0-7.909,2.956-13.98,2.956-26.763,0-11.983-2.556-15.179-2.556-17.815,0-2.477,4.394.639,9.986.639a10.35,10.35,0,0,0,9.666-6.95c2.956,0,3.355-3.116,3.355-5.512,0-2.237-15.1-4.394-15.1-6.79,0-3.595-6.631-5.912-6.631-6.87,0-1.039,2.956-8.069-.639-8.069-2.317,0-7.11,5.912-8.308,5.912-.479,0,.24-9.427-1.917-9.427-1.2.4-8.868,5.432-8.868,15.259Z" transform="translate(0)" fill="#ffb380"/>
  </g>
</svg>
