<svg xmlns="http://www.w3.org/2000/svg" width="144" height="114.399" viewBox="0 0 144 114.399">
  <g id="test_1_" data-name="test (1)" transform="translate(-28.001 -42.801)">
    <path id="Path_37267" data-name="Path 37267" d="M31,99.926a3,3,0,0,1-3-3.006V93.913a3,3,0,0,1,.3-1.315l13.142-27.06a3,3,0,0,1,1.644-1.5L98.946,42.992a3,3,0,0,1,3.812,4l-18,42.094a3,3,0,0,1-2.235,1.776l-51,9.02a3.1,3.1,0,0,1-.523.045ZM46.317,69.245,34.675,93.217l45.208-8L94.473,51.1,46.317,69.245Z" fill="#ffb380"/>
    <path id="Path_37268" data-name="Path 37268" d="M100,157.2,40,138.21V96.919h6V133.8l54,17.09,54-17.09V96.919h6V138.21Z" fill="#ffb380"/>
    <path id="Path_37269" data-name="Path 37269" d="M169,99.926a2.95,2.95,0,0,1-.521-.046l-51-9.02a3,3,0,0,1-2.235-1.776l-18-42.094a3,3,0,0,1,3.812-4l55.857,21.047a3,3,0,0,1,1.644,1.5L171.7,92.6a3.009,3.009,0,0,1,.3,1.315v3.007a3,3,0,0,1-3,3.007ZM120.118,85.221l45.208,8L153.684,69.245,105.529,51.1l14.589,34.12Z" fill="#ffb380"/>
    <path id="Path_37270" data-name="Path 37270" d="M55,123.98v6.013H49V123.98h6Z" fill="#ffb380"/>
    <path id="Path_37271" data-name="Path 37271" d="M64,126.986V133H58v-6.013h6Z" fill="#ffb380"/>
    <path id="Path_37272" data-name="Path 37272" d="M103,45.806V154.047H97V45.806Z" fill="#ffb380"/>
  </g>
</svg>
