<svg xmlns="http://www.w3.org/2000/svg" width="110.96" height="121.91" viewBox="0 0 110.96 121.91">
  <g id="test_2_" data-name="test (2)" transform="translate(-24 -16.5)">
    <path id="Path_37273" data-name="Path 37273" d="M75.246,86.142V60.008H49.623V68.7H66.705v8.76H49.623v26.134H75.246V94.9H58.164V86.215ZM96.562,60.008V77.455H92.328V60.008H83.787V86.142H96.562v17.447H105.1V86.142h8.541V77.455H105.1V60.008Zm33.8-.876-7.811,3.5a48.934,48.934,0,0,1,3.869,19.126c0,26.426-21.024,47.888-46.939,47.888S32.541,108.188,32.541,81.762,53.565,33.874,79.48,33.874v8.687L100.8,29.494,79.48,16.5v8.687C48.893,25.187,24,50.591,24,81.835S48.893,138.41,79.48,138.41s55.48-25.4,55.48-56.648A57.281,57.281,0,0,0,130.361,59.132Z" transform="translate(0)" fill="#ffb380"/>
  </g>
</svg>
