<svg xmlns="http://www.w3.org/2000/svg" width="21.381" height="17.343" viewBox="0 0 21.381 17.343">
  <path id="Path_37266" data-name="Path 37266" d="M44.771,19.343A12.362,12.362,0,0,0,57.243,6.87V6.276a9.656,9.656,0,0,0,2.138-2.257,9.861,9.861,0,0,1-2.495.713,4.621,4.621,0,0,0,1.9-2.376,10.9,10.9,0,0,1-2.732,1.069A4.242,4.242,0,0,0,52.848,2a4.463,4.463,0,0,0-4.4,4.4,2.315,2.315,0,0,0,.119.95,12.281,12.281,0,0,1-9.028-4.633A4.549,4.549,0,0,0,38.95,4.97a4.72,4.72,0,0,0,1.9,3.682,4,4,0,0,1-2.019-.594h0A4.341,4.341,0,0,0,42.4,12.334a3.662,3.662,0,0,1-1.188.119,2.021,2.021,0,0,1-.831-.119,4.5,4.5,0,0,0,4.157,3.088,8.968,8.968,0,0,1-5.464,1.9A3.289,3.289,0,0,1,38,17.2a11.212,11.212,0,0,0,6.771,2.138" transform="translate(-38 -2)" fill-rule="evenodd"/>
</svg>
